<svg xmlns="http://www.w3.org/2000/svg" viewBox="0 0 176.96 32.48"><defs><style>.cls-1{fill:none;stroke:#E75847;stroke-miterlimit:10;stroke-width:1.2px;}.cls-2{fill:#E75847;}</style></defs><title>logo</title><g id="Réteg_2" data-name="Réteg 2"><g id="Layer_1" data-name="Layer 1"><path class="cls-1" d="M46.22,19.07v0Z"/><path class="cls-1" d="M23.41.6C10.81.6.6,6.35.6,13.45S10.81,26.3,23.41,26.3c.36,0,.72,0,1.08,0C32,26,38,22.86,38,19a4.37,4.37,0,0,0-1.11-2.79c-2.19,2.63-7.38,4.48-13.44,4.48-8,0-14.55-3.26-14.55-7.27s6.52-7.27,14.55-7.27h.8c12.23.24,22,5.89,22,12.84V13.45C46.22,6.35,36,.6,23.41.6Z"/><path class="cls-1" d="M23.41,6.18l-1.08,0C14.8,6.48,8.86,9.62,8.86,13.45A4.33,4.33,0,0,0,10,16.24c2.18-2.63,7.38-4.48,13.43-4.48C31.45,11.76,38,15,38,19S31.45,26.3,23.41,26.3l-.8,0C10.38,26.05.6,20.39.6,13.45v5.62h0c0,7.08,10.24,12.81,22.81,12.81S46.22,26.12,46.22,19,36,6.18,23.41,6.18Z"/><path class="cls-2" d="M71.44,12a4.83,4.83,0,0,1,1.72,2.78H70.94a2.87,2.87,0,0,0-1.07-1.35,3,3,0,0,0-1.75-.5,2.76,2.76,0,0,0-2.56,1.62,4.18,4.18,0,0,0-.38,1.83,4.17,4.17,0,0,0,.38,1.82,2.76,2.76,0,0,0,2.56,1.62,3,3,0,0,0,1.75-.5A2.87,2.87,0,0,0,70.94,18h2.22a4.83,4.83,0,0,1-1.72,2.78,5.19,5.19,0,0,1-3.29,1,5.11,5.11,0,0,1-2.67-.69,4.55,4.55,0,0,1-1.8-1.91A5.91,5.91,0,0,1,63,16.37a5.93,5.93,0,0,1,.64-2.8,4.67,4.67,0,0,1,1.79-1.92,5.73,5.73,0,0,1,6,.34Z"/><path class="cls-2" d="M80.42,21.67,78,17.54H77v4.13H74.9V11.08h4a4,4,0,0,1,2.81.9,3.07,3.07,0,0,1,1,2.37,3,3,0,0,1-.67,2,3.29,3.29,0,0,1-1.93,1.08l2.64,4.23ZM77,16.09h1.74c1.21,0,1.81-.54,1.81-1.61a1.55,1.55,0,0,0-.44-1.19,1.88,1.88,0,0,0-1.37-.43H77Z"/><path class="cls-2" d="M86.41,12.76V15.5h3.75v1.62H86.41V20h4.2v1.7H84.29V11.08h6.32v1.68Z"/><path class="cls-2" d="M101,19.13A4.59,4.59,0,0,1,99.06,21a6.3,6.3,0,0,1-3,.67H92.32V11.08h3.76a6.3,6.3,0,0,1,3,.65A4.47,4.47,0,0,1,101,13.57a5.7,5.7,0,0,1,.66,2.79A5.65,5.65,0,0,1,101,19.13Zm-2.42-.25a3.31,3.31,0,0,0,.94-2.52,3.34,3.34,0,0,0-.94-2.54,3.67,3.67,0,0,0-2.65-.9H94.43v6.86H95.9A3.67,3.67,0,0,0,98.55,18.88Z"/><path class="cls-2" d="M105.49,11.08V21.67h-2.12V11.08Z"/><path class="cls-2" d="M114.76,11.08v1.68h-2.93v8.91h-2.11V12.76h-2.91V11.08Z"/><path class="cls-2" d="M118.19,12.76V15.5h3.75v1.62h-3.75V20h4.2v1.7h-6.31V11.08h6.31v1.68Z"/><path class="cls-2" d="M130.33,21.67l-2.39-3.62-2.11,3.62h-2.42l3.33-5.42-3.42-5.17h2.51l2.34,3.54,2.08-3.54h2.42l-3.32,5.32,3.48,5.27Z"/><path class="cls-2" d="M136.24,17.74v3.93h-2.12V11.08H138a4,4,0,0,1,2.83.9,3.21,3.21,0,0,1,.95,2.44,3.14,3.14,0,0,1-1,2.42,4,4,0,0,1-2.8.9Zm3.37-3.32a1.6,1.6,0,0,0-.43-1.21,2,2,0,0,0-1.43-.42h-1.51V16h1.51Q139.61,16,139.61,14.42Z"/><path class="cls-2" d="M148.81,21.67l-2.48-4.13h-.93v4.13h-2.11V11.08h4a4,4,0,0,1,2.82.9,3.1,3.1,0,0,1,1,2.37,3.08,3.08,0,0,1-.66,2,3.32,3.32,0,0,1-1.93,1.08l2.64,4.23Zm-3.41-5.58h1.74c1.21,0,1.82-.54,1.82-1.61a1.58,1.58,0,0,0-.44-1.19,1.92,1.92,0,0,0-1.38-.43H145.4Z"/><path class="cls-2" d="M154.79,12.76V15.5h3.75v1.62h-3.75V20H159v1.7h-6.31V11.08H159v1.68Z"/><path class="cls-2" d="M167.57,20.26a2.92,2.92,0,0,1-1.2,1.1,4.2,4.2,0,0,1-1.93.41,5.11,5.11,0,0,1-2-.38,3.47,3.47,0,0,1-1.42-1.1,3.23,3.23,0,0,1-.61-1.68h2.25a1.75,1.75,0,0,0,.52,1.07,1.66,1.66,0,0,0,1.18.43,1.34,1.34,0,0,0,1-.36,1.34,1.34,0,0,0,.07-1.72,2,2,0,0,0-.72-.52q-.44-.2-1.2-.45a12.58,12.58,0,0,1-1.62-.65,3,3,0,0,1-1.07-.94,2.64,2.64,0,0,1-.45-1.6,2.62,2.62,0,0,1,1-2.16,4,4,0,0,1,2.6-.78,4.14,4.14,0,0,1,2.68.81,3.07,3.07,0,0,1,1.13,2.16h-2.28A1.58,1.58,0,0,0,165,13a1.48,1.48,0,0,0-1.07-.37,1.37,1.37,0,0,0-.94.31,1.1,1.1,0,0,0-.36.89,1.07,1.07,0,0,0,.28.77,2,2,0,0,0,.7.51,12.16,12.16,0,0,0,1.16.43,15,15,0,0,1,1.66.68,2.88,2.88,0,0,1,1.09.94,2.78,2.78,0,0,1,.45,1.65A2.85,2.85,0,0,1,167.57,20.26Z"/><path class="cls-2" d="M176.56,20.26a2.92,2.92,0,0,1-1.2,1.1,4.25,4.25,0,0,1-1.94.41,5.11,5.11,0,0,1-2-.38,3.38,3.38,0,0,1-1.41-1.1,3.14,3.14,0,0,1-.61-1.68h2.25a1.7,1.7,0,0,0,.52,1.07,1.62,1.62,0,0,0,1.17.43,1.38,1.38,0,0,0,1-.36,1.22,1.22,0,0,0,.35-.9,1.19,1.19,0,0,0-.29-.82,2,2,0,0,0-.72-.52q-.44-.2-1.2-.45a12.58,12.58,0,0,1-1.62-.65,3.09,3.09,0,0,1-1.07-.94,2.7,2.7,0,0,1-.44-1.6,2.64,2.64,0,0,1,1-2.16,4.07,4.07,0,0,1,2.6-.78,4.12,4.12,0,0,1,2.68.81,3,3,0,0,1,1.13,2.16h-2.28A1.58,1.58,0,0,0,174,13a1.46,1.46,0,0,0-1.06-.37,1.39,1.39,0,0,0-1,.31,1.1,1.1,0,0,0-.36.89,1.12,1.12,0,0,0,.28.77,2.09,2.09,0,0,0,.71.51,11.2,11.2,0,0,0,1.16.43,15.86,15.86,0,0,1,1.66.68,2.92,2.92,0,0,1,1.08.94,2.78,2.78,0,0,1,.45,1.65A2.85,2.85,0,0,1,176.56,20.26Z"/></g></g></svg>